<svg width="704" height="625" viewBox="0 0 704 625" fill="none" xmlns="http://www.w3.org/2000/svg">
<path fill-rule="evenodd" clip-rule="evenodd" d="M269.964 489.431C216.568 529.247 202.654 537.69 196.487 541.431C193.826 543.046 167.767 544.956 142.925 530.072C115.328 513.538 117.457 510.698 114.828 509.822C112.215 515.048 40.1541 563.655 40.4501 550.737C40.7051 539.604 98.7511 459.853 114.389 462.605L169.487 487.431C186.64 474.144 196.948 465.817 198.601 466.848C187.842 453.035 173.141 412.934 174.136 401.073C176.144 377.124 239.577 279.654 251.342 266.688L263.179 274.529C261.109 272.459 256.646 270.167 251.342 266.688C238.612 258.338 221.04 243.146 220.082 207.744C202.115 222.509 199.72 235.24 183.14 218.926C179.87 215.708 166.301 195.139 164.774 194.481C163.253 193.826 152.128 216.699 151.875 216.788C147.77 218.228 147.27 215.198 141.906 163.339C137.373 167.748 130.099 175.829 125.567 180.237C125.18 165.893 115.962 114.031 170.984 80.9186C195.422 66.2126 232.701 75.7176 254.643 97.5676C254.654 97.6316 254.691 97.6676 254.752 97.6766L254.643 97.5676C254.131 94.7446 302.418 39.3986 372.138 74.2596C368.558 59.4546 459.857 -26.0764 506.428 66.2046C493.214 68.5206 493.75 69.4276 480.828 71.2876C500.352 89.5526 499.126 90.8886 502.398 117.277C501.023 117.029 487.447 114.582 484.996 118.717C482.461 122.996 480.184 150.496 465.578 156.374C453.821 161.104 453.441 158.341 425.653 158.341L425.569 158.084C424.049 151.459 422.694 147.313 422.176 147.725L425.569 158.084C429.754 176.323 435.185 213.356 427.813 225.797C420.613 237.951 401.575 258.285 386.197 270.061L369.862 279.139C373.883 278.469 379.715 275.025 386.197 270.061L390.084 267.901C414.123 267.082 414.457 266.895 437.614 264.322C444.368 237.607 459.549 206.362 493.004 186.413C671.254 80.1266 710.749 337.73 657.411 382.255C651.326 387.335 621.25 412.442 569.882 425.5C535.82 434.158 475.973 419.369 447.76 366.829C420.832 384.36 389.378 396.812 378.505 399.014C378.658 398.599 378.646 398.572 378.433 399.028L274.943 352.94C286.775 361.856 370.034 395.622 378.433 399.028L378.505 399.014C377.241 402.44 364.745 432.313 362.093 434.002C367.405 434.634 417.663 440.614 427.633 447.261C431.661 449.448 435.661 459.62 436.13 460.811C436.294 461.229 436.272 461.236 452.658 526.782C532.74 502.527 536.958 514.982 536.02 521.598C532.861 543.892 436.941 575.866 427.633 578.968C408.506 531.295 383.799 500.733 378.902 494.675C379.463 493.636 313.962 491.038 269.964 489.431L270.187 489.265L233.033 488.14C238.095 488.3 252.296 488.786 269.964 489.431ZM323.756 308.973C321.045 306.399 318.314 303.85 315.295 301.66C318.173 304.167 320.987 306.613 323.756 308.973ZM323.756 308.973C326.592 311.665 329.407 314.385 332.508 316.753C333.72 317.678 337.872 320.848 343.608 324.405C337.078 320.032 330.552 314.763 323.756 308.973ZM394.072 335.304C408.091 333.37 425.349 330.135 434.654 328.328C433.688 322.888 432.993 317.197 432.597 311.246L432.8 315.162C432.752 315.009 432.521 312.648 432.443 308.624L432.42 308.174C427.064 308.532 416.591 308.891 391.862 310.307L394.072 335.304ZM432.597 311.246L432.438 308.173H432.435L432.443 308.624C432.488 309.504 432.539 310.378 432.597 311.246ZM343.608 324.405C359.172 334.829 374.758 340.159 394.072 335.304C388.343 336.095 383.155 336.668 379.272 336.838C367.172 337.366 353.183 330.344 343.608 324.405Z" fill="black"/>
<path d="M269.964 489.431C216.568 529.247 202.654 537.69 196.487 541.431C193.826 543.046 167.767 544.956 142.925 530.072C115.328 513.538 117.457 510.698 114.828 509.822C112.215 515.048 40.1541 563.655 40.4501 550.737C40.7051 539.604 98.7511 459.853 114.389 462.605L169.487 487.431C186.64 474.144 196.948 465.817 198.601 466.848C187.842 453.035 173.141 412.934 174.136 401.073C176.144 377.124 239.577 279.654 251.342 266.688M269.964 489.431C313.962 491.038 379.463 493.636 378.902 494.675C383.799 500.733 408.506 531.295 427.633 578.968C436.941 575.866 532.861 543.892 536.02 521.598C536.958 514.982 532.74 502.527 452.658 526.782C436.272 461.236 436.294 461.229 436.13 460.811C435.661 459.62 431.661 449.448 427.633 447.261C417.663 440.614 367.405 434.634 362.093 434.002C364.745 432.313 377.241 402.44 378.505 399.014M269.964 489.431L270.187 489.265L233.033 488.14C238.095 488.3 252.296 488.786 269.964 489.431ZM251.342 266.688L263.179 274.529C261.109 272.459 256.646 270.167 251.342 266.688ZM251.342 266.688C238.612 258.338 221.04 243.146 220.082 207.744C202.115 222.509 199.72 235.24 183.14 218.926C179.87 215.708 166.301 195.139 164.774 194.481C163.253 193.826 152.128 216.699 151.875 216.788C147.77 218.228 147.27 215.198 141.906 163.339C137.373 167.748 130.099 175.829 125.567 180.237C125.18 165.893 115.962 114.031 170.984 80.9186C195.422 66.2126 232.701 75.7176 254.643 97.5676M254.643 97.5676C254.654 97.6316 254.691 97.6676 254.752 97.6766L254.643 97.5676ZM254.643 97.5676C254.131 94.7446 302.418 39.3986 372.138 74.2596C368.558 59.4546 459.857 -26.0764 506.428 66.2046C493.214 68.5206 493.75 69.4276 480.828 71.2876C500.352 89.5526 499.126 90.8886 502.398 117.277C501.023 117.029 487.447 114.582 484.996 118.717C482.461 122.996 480.184 150.496 465.578 156.374C453.821 161.104 453.441 158.341 425.653 158.341L425.569 158.084M425.569 158.084C424.049 151.459 422.694 147.313 422.176 147.725L425.569 158.084ZM425.569 158.084C429.754 176.323 435.185 213.356 427.813 225.797C420.613 237.951 401.575 258.285 386.197 270.061M386.197 270.061L369.862 279.139C373.883 278.469 379.715 275.025 386.197 270.061ZM386.197 270.061L390.084 267.901C414.123 267.082 414.457 266.895 437.614 264.322C444.368 237.607 459.549 206.362 493.004 186.413C671.254 80.1266 710.749 337.73 657.411 382.255C651.326 387.335 621.25 412.442 569.882 425.5C535.82 434.158 475.973 419.369 447.76 366.829C420.832 384.36 389.378 396.812 378.505 399.014M378.505 399.014C378.658 398.599 378.646 398.572 378.433 399.028M378.505 399.014L378.433 399.028M378.433 399.028L274.943 352.94C286.775 361.856 370.034 395.622 378.433 399.028ZM323.756 308.973C321.045 306.399 318.314 303.85 315.295 301.66C318.173 304.167 320.987 306.613 323.756 308.973ZM323.756 308.973C326.592 311.665 329.407 314.385 332.508 316.753C333.72 317.678 337.872 320.848 343.608 324.405M323.756 308.973C330.552 314.763 337.078 320.032 343.608 324.405M343.608 324.405C359.172 334.829 374.758 340.159 394.072 335.304M343.608 324.405C353.183 330.344 367.172 337.366 379.272 336.838C383.155 336.668 388.343 336.095 394.072 335.304M394.072 335.304C408.091 333.37 425.349 330.135 434.654 328.328C433.688 322.888 432.993 317.197 432.597 311.246M394.072 335.304L391.862 310.307C416.591 308.891 427.064 308.532 432.42 308.174L432.443 308.624M432.597 311.246L432.8 315.162C432.752 315.009 432.521 312.648 432.443 308.624M432.597 311.246L432.438 308.173H432.435L432.443 308.624M432.597 311.246C432.539 310.378 432.488 309.504 432.443 308.624" stroke="white" stroke-width="26.74" stroke-miterlimit="2" stroke-linejoin="round"/>
<path fill-rule="evenodd" clip-rule="evenodd" d="M432.8 315.159C432.504 314.203 424.995 226.964 493.004 186.411C671.254 80.1257 710.749 337.727 657.411 382.253C651.326 387.332 621.25 412.439 569.882 425.496C525.194 436.856 436.124 407.857 432.336 306.202" fill="black"/>
<path fill-rule="evenodd" clip-rule="evenodd" d="M424.514 304.516C424.527 298.067 424.942 289.591 426.362 279.94C430.93 248.917 445.589 205.37 488.907 179.54C542.021 147.87 583.662 147.331 614.695 162.902C660.818 186.044 684.222 246.456 687.099 299.797C688.33 322.628 685.841 344.085 680.079 360.645C675.886 372.693 669.894 382.253 662.538 388.394C656.232 393.658 625.086 419.719 571.853 433.25C524.118 445.385 428.388 415.086 424.341 306.501C424.316 305.819 424.377 305.154 424.514 304.516ZM440.57 310.554C446.578 401.536 526.959 428.154 567.911 417.744C617.415 405.16 646.42 381.007 652.284 376.111C657.729 371.566 661.864 364.304 664.967 355.387C670.148 340.498 672.229 321.187 671.122 300.658C668.543 252.823 648.881 197.957 607.519 177.203C580.228 163.51 543.81 165.432 497.101 193.283C458.808 216.116 446.229 254.846 442.192 282.271C440.448 294.117 440.437 305.219 440.57 310.554Z" fill="black"/>
<path fill-rule="evenodd" clip-rule="evenodd" d="M504.945 301.979C508.853 266.815 555.092 242.583 580.111 274.571C598.185 297.68 584.577 320.942 579.185 332.144C572.174 346.711 545.422 353.29 527.27 345.789C522.596 343.858 498.827 321.355 504.945 301.979Z" fill="white"/>
<path fill-rule="evenodd" clip-rule="evenodd" d="M497.079 300.352L497.08 300.347C502.282 259.105 556.945 231.972 586.409 269.643C607.117 296.119 592.568 322.779 586.39 335.614C582.802 343.07 575.392 349.156 566.041 352.843C553.248 357.886 536.923 358.436 524.212 353.183C521.389 352.017 512.446 345.001 505.488 334.992C498.5 324.938 493.731 312.149 497.079 300.352ZM530.563 338.494C539.599 342.134 551.123 341.525 560.173 337.958C565.439 335.882 569.953 332.873 571.973 328.675C576.581 319.101 589.253 299.249 573.806 279.5C553.405 253.416 516.079 274.189 512.894 302.862C512.836 303.38 512.728 303.891 512.571 304.388C510.243 311.759 514.243 319.553 518.626 325.86C522.846 331.93 530.106 338.108 530.563 338.494Z" fill="black"/>
<path fill-rule="evenodd" clip-rule="evenodd" d="M554.891 308.126C551.752 310.935 546.92 310.832 543.905 307.816C540.782 304.694 540.782 299.625 543.905 296.503L546.337 294.604C550.08 292.262 555.02 293.399 557.363 297.141C559.692 300.862 558.582 305.767 554.891 308.126ZM554.725 308.23C554.558 308.333 554.398 308.43 554.398 308.43C554.398 308.43 554.532 308.365 554.725 308.23Z" fill="black"/>
<path fill-rule="evenodd" clip-rule="evenodd" d="M475.11 272.29C474.747 274.468 472.684 275.941 470.507 275.578C468.329 275.215 466.856 273.153 467.219 270.975C467.793 267.528 477.708 244.492 478.695 242.221C479.72 239.864 486.496 224.614 501.51 219.609C503.604 218.911 505.871 220.045 506.57 222.139C507.268 224.234 506.134 226.501 504.04 227.199C492.069 231.189 486.849 243.531 486.032 245.41C485.106 247.539 475.648 269.059 475.11 272.29Z" fill="white"/>
<path fill-rule="evenodd" clip-rule="evenodd" d="M496.327 211.519C496.107 211.615 495.248 211.997 494.629 212.39C492.845 213.522 490.676 215.327 488.291 217.623C477.488 228.029 462.573 248.247 460.132 265.334C459.82 267.52 457.792 269.041 455.606 268.729C453.421 268.416 451.9 266.389 452.212 264.203C454.882 245.514 470.926 223.242 482.742 211.861C486.537 208.205 489.954 205.646 492.393 204.489C494.181 203.641 495.714 203.42 496.845 203.543C499.04 203.78 500.629 205.755 500.391 207.95C500.166 210.03 498.381 211.566 496.327 211.519Z" fill="white"/>
<path fill-rule="evenodd" clip-rule="evenodd" d="M512.07 233.066C513.816 231.715 516.33 232.035 517.682 233.78C519.033 235.526 518.713 238.04 516.968 239.392C499.256 253.104 496.54 268.283 492.944 277.273C492.125 279.323 489.795 280.321 487.745 279.501C485.695 278.681 484.697 276.351 485.517 274.302C489.448 264.472 492.705 248.059 512.07 233.066Z" fill="white"/>
<path fill-rule="evenodd" clip-rule="evenodd" d="M506.142 275.764C505.352 277.826 503.036 278.858 500.975 278.067C498.914 277.277 497.882 274.961 498.672 272.9C499.118 271.737 501.663 265.132 506.356 259.356C511.419 253.124 514.144 251.423 516.129 250.342C516.946 249.897 517.613 249.695 518.373 248.935C519.934 247.374 522.469 247.374 524.03 248.935C525.591 250.496 525.591 253.031 524.03 254.592C522.875 255.747 521.88 256.347 520.749 256.946C519.121 257.809 517.129 258.784 512.565 264.401C508.631 269.242 506.516 274.789 506.142 275.764Z" fill="white"/>
<path fill-rule="evenodd" clip-rule="evenodd" d="M560.653 371.946C557.721 373.082 548.922 375.835 532.979 373.205C530.8 372.846 529.324 370.786 529.683 368.608C530.042 366.429 532.102 364.953 534.28 365.312C549.309 367.79 556.836 364.886 558.332 364.255L559.327 363.914L560.318 363.823L561.512 364.045L562.787 364.777L563.478 365.539L563.967 366.495L564.184 368.102L563.99 369.085L563.629 369.875L562.383 371.196C561.856 371.594 561.262 371.842 560.653 371.946Z" fill="white"/>
<path fill-rule="evenodd" clip-rule="evenodd" d="M563.467 378.662C565.603 378.105 567.79 379.387 568.347 381.524C568.904 383.66 567.622 385.846 565.486 386.404C563.767 386.852 555.144 389.095 545.912 389.693C539.336 390.119 532.482 389.657 527.318 387.422C525.292 386.545 524.359 384.188 525.236 382.162C526.113 380.136 528.47 379.203 530.496 380.08C534.628 381.868 540.133 382.05 545.395 381.71C553.92 381.158 561.88 379.076 563.467 378.662Z" fill="white"/>
<path fill-rule="evenodd" clip-rule="evenodd" d="M564.051 407.377C563.075 407.517 561.257 407.798 559.773 408.143C552.915 409.739 542.998 412.473 535.949 411.86C533.697 411.665 525.76 411.033 508.892 403.734C506.866 402.857 505.933 400.5 506.81 398.474C507.686 396.448 510.043 395.515 512.069 396.392C527.408 403.03 534.594 403.713 536.641 403.891C540.736 404.246 545.926 403.199 550.708 402.092C556.184 400.825 561.193 399.461 563.971 399.3C564.999 399.241 565.852 399.321 566.507 399.478L567.801 399.96L568.761 400.617L569.875 402.054L570.358 403.779C570.547 405.979 568.914 407.918 566.714 408.107C565.73 408.191 564.797 407.91 564.051 407.377Z" fill="white"/>
<path fill-rule="evenodd" clip-rule="evenodd" d="M651.892 332.079C651.516 334.254 649.445 335.715 647.27 335.34C645.094 334.964 643.633 332.893 644.008 330.718C644.662 326.931 648.368 318.369 647.288 300.686C646.35 285.329 646.571 283.718 643.033 277.459C641.947 275.537 642.625 273.095 644.547 272.009C646.469 270.922 648.911 271.6 649.998 273.522C654.072 280.73 654.193 282.513 655.273 300.198C656.42 318.963 652.585 328.061 651.892 332.079Z" fill="white"/>
<path fill-rule="evenodd" clip-rule="evenodd" d="M628.398 319.698C628.662 319.105 632.221 311.018 632.568 303.839C632.759 299.871 631.469 292.931 629.502 286.993C628.294 283.345 626.892 280.057 625.27 278.328C623.76 276.718 623.84 274.185 625.45 272.674C627.06 271.164 629.594 271.245 631.104 272.855C633.304 275.199 635.457 279.53 637.096 284.477C639.399 291.43 640.784 299.579 640.559 304.226C640.213 311.386 638.089 317.913 636.463 321.504C635.44 323.762 634.358 325.11 633.862 325.519C632.16 326.924 629.636 326.683 628.231 324.981C626.935 323.411 627.039 321.144 628.398 319.698Z" fill="white"/>
<path fill-rule="evenodd" clip-rule="evenodd" d="M618.801 321.657C618.07 323.415 616.159 324.451 614.236 324.022C612.082 323.54 610.723 321.401 611.204 319.246L611.689 317.991C612.262 316.892 614.759 312.49 614.95 303.917C614.959 303.543 614.723 297.88 613.474 292.38C612.762 289.243 611.854 286.082 610.146 284.454C608.548 282.931 608.487 280.397 610.011 278.799C611.534 277.201 614.068 277.141 615.666 278.664C617.705 280.608 619.325 283.782 620.426 287.386C622.637 294.626 622.96 303.584 622.949 304.095C622.719 314.38 619.102 321.114 618.801 321.657Z" fill="white"/>
<path fill-rule="evenodd" clip-rule="evenodd" d="M274.942 352.939C286.775 361.855 370.034 395.622 378.433 399.028L274.942 352.939ZM315.295 301.66C321.471 306.141 326.442 312.122 332.508 316.752C335.744 319.223 359.924 337.682 379.272 336.837C383.155 336.668 388.343 336.095 394.072 335.304C412.732 332.729 437.132 327.849 440.875 327.101C441.285 324.306 446.162 291.046 457.467 295.94C461.022 297.479 468.24 309.282 470.023 309.598C474.384 310.369 499.848 294.771 510.789 321.943C524.374 355.684 478.315 364.241 460.081 358.163C431.225 380.212 390.941 396.526 378.433 399.028C380.408 394.799 365.065 432.108 362.093 434.002C367.405 434.634 417.663 440.614 427.633 447.26C431.661 449.448 435.661 459.62 436.129 460.81C436.294 461.229 436.272 461.236 452.658 526.781C532.74 502.527 536.957 514.981 536.02 521.597C532.861 543.892 436.94 575.865 427.633 578.968C408.505 531.294 383.798 500.732 378.901 494.675C379.721 493.155 239.359 488.305 231.389 488.09L270.186 489.265C216.607 529.223 202.662 537.684 196.487 541.431C193.825 543.046 167.767 544.955 142.925 530.072C115.328 513.538 117.457 510.698 114.828 509.821C112.215 515.047 40.1541 563.655 40.4501 550.737C40.7051 539.603 98.7511 459.853 114.389 462.605C114.389 462.605 165.079 485.445 169.487 487.431C186.64 474.143 196.948 465.817 198.6 466.848C187.842 453.034 173.141 412.933 174.136 401.073C176.144 377.124 239.577 279.654 251.341 266.688L263.179 274.529C256.139 267.489 221.439 257.896 220.081 207.743C202.115 222.508 199.719 235.239 183.14 218.926C179.869 215.707 166.301 195.138 164.774 194.481C163.252 193.826 152.127 216.699 151.874 216.788C147.77 218.228 147.27 215.198 141.905 163.339C137.372 167.747 130.099 175.828 125.566 180.237C125.179 165.893 115.962 114.03 170.984 80.9189C195.462 66.1879 232.825 75.7499 254.752 97.6769C251.963 97.2879 300.845 38.6129 372.138 74.2589C368.557 59.4539 459.857 -26.0761 506.428 66.2039C493.214 68.5199 493.749 69.4279 480.828 71.2869C500.351 89.5519 499.126 90.8889 502.397 117.277C501.022 117.029 487.446 114.581 484.996 118.717C482.461 122.996 480.184 150.496 465.578 156.373C453.821 161.104 453.44 158.34 425.653 158.34L422.175 147.725C424.12 146.179 437.861 208.837 427.813 225.797C417.577 243.074 383.424 276.878 369.862 279.139L390.083 267.901C414.536 267.067 414.462 266.889 438.828 264.187C438.8 267.612 438.491 305.36 439.487 306.992C434.757 308.568 434.531 307.863 391.862 310.307L394.072 335.304C363.353 343.025 342.067 324.984 315.295 301.66Z" fill="#92B8C8"/>
<path fill-rule="evenodd" clip-rule="evenodd" d="M187.162 463.913C181.57 454.139 175.69 440.307 171.617 427.859C167.819 416.255 165.716 405.754 166.165 400.404C166.815 392.646 173.122 377.614 182.415 360.173C199.708 327.715 226.882 285.96 239.89 268.321C229.379 260.034 218.07 247.063 213.803 224.532C211.888 226.446 210.177 228.127 208.546 229.462C203.738 233.395 199.16 235.061 194.063 234.436C189.667 233.897 184.311 231.301 177.53 224.628C175.779 222.905 169.961 214.996 165.408 208.694C162.853 213.377 160.029 218.557 159.244 220.022L157.822 222.141L156.37 223.406L154.524 224.336L151.473 225.011L148.088 224.688L144.662 222.917L143.206 221.472L141.818 219.351C141.035 217.835 140.172 215.277 139.411 211.032C138.431 205.573 137.345 196.405 135.739 181.292C134.063 183.046 132.484 184.669 131.145 185.972C128.868 188.186 125.496 188.844 122.554 187.648C119.612 186.451 117.656 183.628 117.57 180.452C117.155 165.052 107.787 109.614 166.86 74.0649C191.749 59.0869 228.703 66.0239 253.562 85.9009C268.198 70.8169 310.504 39.7099 367.242 63.2289C370.586 57.4039 376.975 49.8149 385.566 42.4689C404.333 26.4209 433.508 11.5999 461.43 17.2109C480.326 21.0079 499.066 33.8599 513.571 62.5999C514.711 64.8609 514.715 67.5279 513.579 69.7919C512.444 72.0549 510.304 73.6469 507.809 74.0839C502.744 74.9719 499.68 75.6539 497.114 76.2609C501.003 80.6109 503.383 84.1809 505.058 88.0759C507.817 94.4939 508.563 101.978 510.337 116.292C510.65 118.816 509.744 121.339 507.897 123.087C506.05 124.835 503.482 125.601 500.979 125.15C500.362 125.038 494.432 124.78 491.548 124.659C490.553 128.856 488.167 138.284 485.363 144.924C481.795 153.374 476.279 160.691 468.565 163.795C457.474 168.258 455.815 166.849 435.402 166.436C437.509 177.877 439.377 192.022 439.451 204.18C439.516 215.026 437.938 224.404 434.697 229.875C430.064 237.695 420.789 248.762 410.585 259.005C417.931 258.52 423.721 257.813 437.948 256.236C440.22 255.984 442.492 256.717 444.189 258.249C445.887 259.781 446.847 261.966 446.829 264.253C446.813 266.197 446.694 279.427 446.788 290.532C448.182 289.425 449.648 288.618 451.134 288.121L453.464 287.572L455.928 287.467L458.365 287.829L460.646 288.598C462.32 289.323 464.664 291.109 466.957 293.698C468.688 295.651 471.159 298.758 472.808 300.865C475.414 300.096 478.787 299.056 482.492 298.437C489.043 297.342 496.397 297.53 503.133 301.021C508.862 303.989 514.339 309.339 518.211 318.955C522.675 330.044 521.874 339.067 518.335 346.234C514.867 353.256 508.517 358.641 500.728 362.245C488.452 367.925 472.627 369.045 461.801 366.865C434.986 386.466 400.169 401.23 384.407 405.767C382.197 411.116 378.253 420.349 374.853 427.562C385.106 428.947 399.915 431.156 411.804 433.772C420.807 435.753 428.264 438.181 431.791 440.423C433.802 441.612 435.949 443.739 437.779 446.437C440.778 450.862 443.195 456.916 443.575 457.883C443.735 458.29 443.781 458.298 458.394 516.738C503.577 503.66 523.798 503.245 532.507 505.935C536.809 507.264 539.395 509.329 541.059 511.396L542.644 513.861L543.615 516.407L544.086 519.254C544.165 520.457 544.096 521.63 543.942 522.72C543.372 526.74 541.107 531.144 536.989 535.482C532.459 540.255 525.438 545.278 516.975 550.163C486.584 567.706 436.792 584.348 430.164 586.557C426.148 587.896 421.785 585.875 420.209 581.947C403.367 539.97 382.102 511.585 374.605 502.107C374.572 502.104 374.539 502.101 374.506 502.098C360.501 500.903 309.724 498.892 272.489 497.526C220.504 536.237 206.769 544.55 200.637 548.271C199.431 549.002 195.143 550.386 188.58 550.501C177.495 550.695 157.826 548.325 138.814 536.934C126.207 529.381 118.944 523.979 114.926 520.602C114.539 520.915 114.137 521.234 113.72 521.557C99.6281 532.47 65.5711 554.568 50.3031 559.549C45.2361 561.202 41.2671 561.06 38.9791 560.234L36.3451 558.818L34.0301 556.334L32.7431 553.321L32.4531 550.553C32.5201 547.627 35.1971 540.655 40.4821 531.908C50.5791 515.193 69.7201 489.406 85.8211 472.761C93.3761 464.951 100.432 459.118 105.724 456.556C109.617 454.671 113.067 454.249 115.777 454.726C116.432 454.841 117.07 455.038 117.677 455.311L168.389 478.162C176.3 472.031 182.632 467.137 187.162 463.913ZM246.84 496.61C240.328 496.383 235.418 496.219 232.842 496.137C232.178 496.117 231.618 496.1 231.174 496.087L231.148 496.086C226.737 495.952 223.267 492.272 223.393 487.86C223.52 483.449 227.195 479.973 231.606 480.093C231.615 480.093 231.623 480.093 231.632 480.093C232.048 480.105 232.564 480.121 233.17 480.14L270.43 481.268C271.017 481.286 271.591 481.368 272.144 481.507C309.708 482.886 361.639 484.942 375.867 486.156C378.285 486.362 379.893 486.607 380.566 486.774L382.231 487.356L383.891 488.388L385.137 489.79L385.124 489.646C389.896 495.549 413.049 524.166 432.162 568.989C448.065 563.511 484.857 550.229 508.976 536.306C514.822 532.931 519.89 529.548 523.582 526.215C525.549 524.439 527.228 522.934 527.862 521.348C526.941 521.076 525.477 520.703 524.06 520.586C513.558 519.714 493.391 522.804 454.978 534.438C452.882 535.073 450.618 534.821 448.713 533.74C446.808 532.66 445.429 530.846 444.898 528.722C431.451 474.935 428.893 464.747 428.559 463.418C428.13 462.341 426.909 459.366 425.333 456.686C424.795 455.77 423.707 454.377 423.494 454.106C423.393 454.045 423.294 453.982 423.196 453.917C420.682 452.241 415.041 450.867 408.365 449.398C390.134 445.386 364.807 442.381 361.149 441.946C357.791 441.546 355.047 439.079 354.294 435.782C353.668 433.036 354.535 430.209 356.49 428.292C359.029 424.347 364.558 411.599 368.012 403.413C345.041 393.985 280.527 367.164 270.129 359.328C266.603 356.671 265.897 351.651 268.554 348.125C271.211 344.599 276.231 343.893 279.758 346.55C290.654 354.761 363.32 384.276 379.093 390.664C393.114 387.019 429.04 371.815 455.225 351.806C457.331 350.197 460.098 349.735 462.612 350.574C470.293 353.134 483.818 352.44 494.008 347.725C498.316 345.731 502.072 343.032 503.989 339.149C505.836 335.41 505.698 330.716 503.369 324.932C501.266 319.709 498.617 316.595 495.488 315.085C490.526 312.69 484.98 314.057 480.769 315.193C477.704 316.02 475.12 316.896 473.374 317.272L471.028 317.607L468.631 317.475L465.183 316.06L462.397 313.52C460.875 311.809 457.56 307.768 455.464 305.196C454.534 306.884 453.307 309.273 452.676 311.166C450.192 318.621 448.981 326.968 448.792 328.261C448.301 331.607 445.761 334.282 442.445 334.945C438.692 335.696 414.382 340.555 395.589 343.17C376.007 347.968 359.786 343.498 343.815 333.832C335.505 329.096 329.233 324.317 327.654 323.111C324.525 320.722 321.692 317.967 318.832 315.248C315.948 312.816 313.023 310.29 310.041 307.692C306.814 304.881 306.371 300.028 309.036 296.679C311.7 293.33 316.529 292.671 319.993 295.184C322.964 297.34 325.661 299.836 328.333 302.365C335.081 308.138 341.545 313.395 348.02 317.732C351.191 319.69 354.863 321.763 358.782 323.601C365.235 326.627 372.383 329.13 378.924 328.845C380.802 328.763 383 328.579 385.424 328.319L383.894 311.011C383.703 308.855 384.395 306.714 385.81 305.076C387.226 303.438 389.244 302.444 391.405 302.32C416.297 300.894 426.088 300.683 430.967 300.393C430.752 292.988 430.747 281.289 430.777 273.134C415.088 274.88 411.889 275.153 392.285 275.83L390.584 276.776C382.948 282.55 375.927 286.238 371.178 287.03C367.338 287.67 363.595 285.453 362.311 281.778C361.026 278.103 362.574 274.037 365.977 272.146L381.791 263.358C396.319 252.121 414.162 233.145 420.931 221.719C423.117 218.03 423.495 211.592 423.451 204.277C423.357 188.857 418.791 166.284 416.675 156.628L414.574 150.215C413.532 147.036 414.579 143.545 417.198 141.463L418.986 140.383L421.244 139.76L423.499 139.793L425.325 140.299L428.27 142.334L429.452 143.908L430.538 146.189C430.914 147.159 431.363 148.587 431.857 150.388C439.585 150.509 444.766 150.833 448.703 151.019C454.528 151.294 456.917 151.235 462.592 148.951C467.879 146.824 470.261 140.314 472.224 134.418C474.063 128.894 475.174 123.461 476.103 119.989C476.767 117.51 477.5 115.676 478.114 114.639L480.161 112.132L482.408 110.519C484.021 109.615 486.107 108.94 488.475 108.611C489.979 108.402 491.641 108.339 493.301 108.363C492.582 102.248 491.95 98.0969 490.358 94.3949C488.133 89.2179 483.906 85.1209 475.364 77.1289C473.117 75.0269 472.274 71.8229 473.197 68.8879C474.12 65.9529 476.644 63.8069 479.689 63.3689C487.324 62.2699 490.216 61.5039 494.084 60.5769C483.535 43.8639 471.173 35.4879 458.278 32.8969C435.232 28.2659 411.454 41.3839 395.964 54.6299C389.395 60.2459 384.307 65.9239 381.54 70.4659C380.921 71.4809 380.31 72.9219 380.097 73.4409C380.374 76.1279 379.273 78.8059 377.121 80.5189C374.685 82.4569 371.346 82.8069 368.561 81.4149C311.224 52.7459 269.662 90.3139 262.423 99.9509C262.293 100.39 262.123 100.822 261.914 101.243C260.381 104.321 257.053 106.075 253.648 105.6L251.58 105.027L249.414 103.666L249.112 103.302L249.096 103.334C229.69 83.9279 196.773 74.7369 175.11 87.7739C138.724 109.67 132.933 140.54 132.728 161.248C134.033 159.893 135.258 158.646 136.329 157.604C138.527 155.466 141.753 154.773 144.635 155.819C147.518 156.865 149.548 159.466 149.864 162.516C151.452 177.865 152.607 188.901 153.558 196.793C155.453 193.454 157.179 190.617 158.112 189.584L160.047 187.892L162.011 186.919L165.159 186.48L167.939 187.133L170.342 188.684C170.931 189.21 172.005 190.396 173.314 192.109C177.494 197.58 186.243 210.755 188.752 213.223C190.631 215.072 192.266 216.481 193.76 217.468C194.683 218.077 195.343 218.608 196.063 218.558C196.767 218.51 197.299 217.95 197.984 217.42C199.164 216.509 200.374 215.357 201.704 214.049C205.233 210.58 209.394 206.172 215.003 201.563C217.363 199.623 220.622 199.197 223.402 200.465C226.182 201.732 227.997 204.473 228.079 207.527C229.05 243.376 249.103 256.021 260.299 262.87C264.122 265.208 267.119 267.154 268.837 268.872C271.742 271.777 271.974 276.41 269.374 279.592C266.774 282.773 262.187 283.467 258.762 281.198L253.012 277.39C240.955 293.509 213.742 335.401 196.536 367.696C188.617 382.56 182.663 395.13 182.109 401.741C181.761 405.881 183.885 413.903 186.823 422.883C191.572 437.394 198.845 454.141 204.913 461.932C207.296 464.993 207.141 469.322 204.544 472.203C203.258 473.631 201.557 474.499 199.767 474.763C197.484 476.414 186.096 484.685 174.387 493.755C172.048 495.568 168.899 495.94 166.201 494.725L113.165 470.827C112.276 471.265 110.638 472.109 109.47 472.941C105.876 475.502 101.736 479.321 97.3211 483.885C81.9981 499.726 63.7861 524.273 54.1771 540.18C54.0811 540.339 53.9861 540.499 53.8911 540.659C68.3301 533.503 88.7781 520.129 100.561 511.442C103.991 508.914 107.64 505.799 108.239 505.284C110.232 502.386 113.939 501.092 117.359 502.232L119.533 503.234L121.803 505.055C123.385 506.656 126.299 510.784 147.037 523.209C165.977 534.557 190.787 534.153 193.168 534.087C198.838 530.634 210.725 523.18 246.84 496.61ZM370.924 495.271C370.813 493.778 371.12 492.251 371.862 490.875C371.079 492.326 370.8 493.796 370.924 495.271ZM434.9 315.891C430.009 316.292 420.894 316.692 400.559 317.828L401.294 326.146C413.597 324.211 426.648 321.739 433.954 320.314C434.218 318.983 434.533 317.487 434.9 315.891ZM259.446 91.0729C259.77 91.3859 260.091 91.7019 260.41 92.0199C260.906 92.5159 261.326 93.0659 261.668 93.6529C261.12 92.5819 260.38 91.7199 259.446 91.0729Z" fill="black"/>
<path fill-rule="evenodd" clip-rule="evenodd" d="M404.742 90.8845C402.628 94.7605 397.765 96.1905 393.888 94.0765C390.012 91.9625 388.582 87.0984 390.696 83.2225C401.773 62.9144 419.79 51.8685 434.147 49.8565C446.363 48.1445 456.285 52.5914 460.816 61.6535C462.791 65.6024 461.188 70.4115 457.238 72.3865C453.289 74.3605 448.48 72.7574 446.505 68.8084C445.155 66.1084 442.05 65.3935 438.572 65.5075C432.963 65.6915 426.406 68.2825 420.175 72.8885C414.394 77.1604 408.943 83.1825 404.742 90.8845Z" fill="black"/>
<path fill-rule="evenodd" clip-rule="evenodd" d="M181.883 131.95C178.688 134.997 173.62 134.877 170.573 131.682C167.525 128.487 167.646 123.419 170.841 120.371C190.222 101.887 205.02 98.0305 215.782 99.4265C224.734 100.587 231.518 105.39 236.592 110.601C240.308 114.419 242.778 118.463 244.594 120.004C247.961 122.861 248.375 127.913 245.519 131.28C242.662 134.647 237.61 135.061 234.243 132.204C232.506 130.73 230.139 127.453 227.021 123.837C223.968 120.297 219.862 116.089 213.724 115.293C205.924 114.281 195.93 118.554 181.883 131.95Z" fill="black"/>
<path fill-rule="evenodd" clip-rule="evenodd" d="M328.722 217.1C324.011 167.66 335.152 156.607 353.294 165.196C355.966 166.461 368.844 197.491 360.196 226.486C355.247 243.079 331.267 243.801 328.722 217.1Z" fill="black"/>
<path fill-rule="evenodd" clip-rule="evenodd" d="M320.759 217.858C318.736 196.638 319.639 182.015 322.452 172.688C325.363 163.038 330.472 157.945 336.309 155.776C341.958 153.678 348.92 154.274 356.717 157.965L358.688 159.246L360.122 160.737C360.905 161.715 361.998 163.46 363.133 165.923C367.953 176.38 375.462 203.293 367.862 228.773C364.103 241.379 352.855 247.578 342.323 245.932C332.757 244.438 322.514 236.281 320.759 217.858ZM347.929 171.554C345.65 170.606 343.643 170.12 341.881 170.775C339.82 171.54 338.798 173.901 337.771 177.308C335.34 185.365 334.94 198.009 336.686 216.341C337.354 223.347 339.585 227.828 343.054 229.562C346.79 231.431 351.131 228.891 352.53 224.2C358.784 203.229 349.741 176.534 347.929 171.554Z" fill="black"/>
<path fill-rule="evenodd" clip-rule="evenodd" d="M399.339 157.97L386.121 162.487L399.768 165.471C398.459 171.721 393.203 176.303 386.93 176.661C379.242 177.1 372.638 171.105 372.192 163.282C371.745 155.459 377.624 148.752 385.312 148.313C391.585 147.955 397.329 151.908 399.339 157.97Z" fill="black" stroke="black" stroke-width="3.99493" stroke-miterlimit="1.5" stroke-linecap="round" stroke-linejoin="round"/>
<path fill-rule="evenodd" clip-rule="evenodd" d="M302.158 165.93L288.438 168.555L301.534 173.417C299.364 179.423 293.519 183.226 287.258 182.703C279.584 182.063 273.883 175.203 274.534 167.395C275.186 159.586 281.945 153.767 289.618 154.407C295.88 154.929 301.014 159.647 302.158 165.93Z" fill="black" stroke="black" stroke-width="3.99493" stroke-miterlimit="1.5" stroke-linecap="round" stroke-linejoin="round"/>
<path d="M82.0098 437.259L85.4023 437.372L85.5635 437.378L85.7158 437.433L88.1523 438.336L88.3047 438.392L88.4307 438.493L90.8145 440.403L90.9443 440.507L91.0332 440.647L92.4678 442.903L92.5439 443.021L92.583 443.156L93.2295 445.338L93.2627 445.452L93.2695 445.571L93.3779 447.711L93.3838 447.819L93.3662 447.927L92.9668 450.311L92.958 450.361L92.9453 450.409C91.6798 455.058 86.9875 457.86 82.334 456.837C78.954 459.258 73.2667 463.507 68.8652 467.679L67.9707 468.543C64.6186 471.851 61.3226 475.388 58.6211 478.835C56.0777 482.08 54.1054 485.189 53.0859 487.914L52.8955 488.454C51.3739 493.02 46.5386 495.555 41.9541 494.281L41.5107 494.146C36.7982 492.575 34.2479 487.474 35.8184 482.762L36.085 482.003C38.9998 474.091 46.8694 464.079 55.3271 455.732L56.1494 454.927C60.27 450.928 64.5044 447.325 68.2959 444.465C72.3188 441.43 75.9092 439.18 78.3613 438.208L78.4131 438.187L78.4678 438.173L81.7148 437.293L81.8594 437.253L82.0098 437.259Z" fill="black" stroke="white" stroke-width="2"/>
<path d="M61.418 423.269C66.1534 422.804 70.4787 426.136 71.1904 430.896L71.2471 431.355C71.6976 435.938 68.5919 440.137 64.0771 441.048L63.6211 441.128C63.4339 441.156 63.1783 441.264 62.7939 441.521C62.5978 441.652 62.4023 441.797 62.1895 441.96L61.4814 442.504C59.8652 443.728 58.1535 445.353 56.3818 447.236L55.6191 448.059C46.1629 458.392 36.2166 474.34 32.7744 480.005L31.7178 481.757C29.1616 486.016 23.6296 487.399 19.3701 484.844H19.3691C15.1102 482.288 13.7263 476.756 16.2822 472.496L17.4219 470.613C21.1509 464.503 32.0096 447.196 42.3398 435.907L42.9482 435.25C45.9979 431.999 49.1098 429.292 52.0771 427.275C55.2287 425.132 58.2789 423.726 60.958 423.325L61.418 423.269Z" fill="black" stroke="white" stroke-width="2"/>
<path d="M77.4629 274.182C80.514 273.684 85.9854 273.811 96.6289 274.165C107.334 274.521 123.392 275.116 147.764 275.594L148.227 275.614C152.821 275.937 156.44 279.703 156.583 284.306L156.586 284.769C156.492 289.581 152.63 293.44 147.874 293.588L147.411 293.591C130.354 293.256 117.452 292.846 107.651 292.5C99.0678 292.197 92.8822 291.943 88.3633 291.831L86.5273 291.793C84.6236 291.761 82.8146 291.828 81.6055 291.892C79.0085 294.772 74.7558 295.721 71.1162 294.019L70.7529 293.84C66.3506 291.538 64.6453 286.097 66.9473 281.694L66.9668 281.656L66.9902 281.62L68.584 279.12L68.6445 279.025L68.7246 278.946L70.6943 277L70.7812 276.914L70.8877 276.852L73.3936 275.367L73.5049 275.301L73.6289 275.266L77.3506 274.207L77.4062 274.191L77.4629 274.182Z" fill="black" stroke="white" stroke-width="2"/>
<path d="M154.464 299.218L154.926 299.235C159.522 299.532 163.163 303.275 163.334 307.877L163.34 308.34C163.273 313.152 159.436 317.035 154.68 317.211L154.217 317.217L102.877 316.513C97.9098 316.444 93.9335 312.357 94.001 307.39L94.0186 306.927C94.3254 302.178 98.3113 298.449 103.123 298.514L154.464 299.218Z" fill="black" stroke="white" stroke-width="2"/>
<path d="M131.108 319.497C135.851 319.108 140.122 322.508 140.758 327.277L140.808 327.738C141.184 332.328 138.012 336.476 133.484 337.315L133.027 337.387L65.5273 346.387C60.7566 347.024 56.3559 343.793 55.4883 339.114L55.416 338.657C54.7601 333.733 58.2229 329.203 63.1475 328.547L130.647 319.547L131.108 319.497Z" fill="black" stroke="white" stroke-width="2"/>
<path d="M611.876 126.768C615.033 125.335 618.618 125.882 621.188 127.918C624.249 128.904 633.25 132.591 651.259 145.688L651.721 146.018C656.692 149.513 667.676 155.664 676.791 167.817L677.059 168.194C679.632 172.013 678.894 177.183 675.354 180.129L674.991 180.416C671.142 183.304 665.722 182.637 662.678 178.98L662.391 178.617C654.782 168.472 645.562 163.672 641.09 160.543L640.672 160.246C630.529 152.869 624.141 149.076 620.065 147.028C615.913 144.941 614.369 144.735 613.158 144.225L613.085 144.194L613.018 144.152L610.173 142.379L610.017 142.282L609.905 142.135L607.639 139.148L607.582 139.074L607.54 138.991C605.319 134.548 607.123 129.138 611.565 126.916L611.876 126.768Z" fill="black" stroke="white" stroke-width="2"/>
<path d="M632.246 105.065C635.759 103.565 639.742 104.479 642.271 107.117C645.68 108.582 657.686 114.834 680.454 137.602C683.857 141.005 683.963 146.463 680.773 149.995L680.454 150.331C677.051 153.734 671.593 153.84 668.062 150.649L667.726 150.331C655.579 138.184 647.661 131.671 642.444 128.019C637.24 124.377 634.76 123.597 633.244 122.827L633.171 122.79L633.105 122.741L629.807 120.318L629.668 120.217L629.571 120.073L627.726 117.349L627.683 117.287L627.65 117.219C625.513 112.734 627.416 107.359 631.9 105.221L632.246 105.065Z" fill="black" stroke="white" stroke-width="2"/>
<path d="M473.053 586.339C475.896 583.359 480.492 582.658 484.128 584.803L484.487 585.027L484.559 585.073L484.62 585.131L487.532 587.83L487.649 587.939L487.728 588.08L488.728 589.887L488.782 589.986L489.313 591.829L489.343 591.933L489.351 592.042L489.468 593.889L489.476 594.003L489.457 594.115L489.147 596.014L489.121 596.172L489.049 596.312L487.505 599.302L487.414 599.477L487.265 599.604L484.68 601.807L484.545 601.923L484.38 601.984L480.373 603.474L480.316 603.495L480.257 603.51C477.577 604.152 472.484 604.844 463.777 605.798C457.229 606.515 448.6 607.383 437.354 608.488L425.214 609.676C420.424 610.143 416.14 606.759 415.439 602.052L415.383 601.592C414.9 596.648 418.522 592.243 423.466 591.76L428.426 591.272C452.127 588.917 466.804 587.135 473.053 586.339Z" fill="black" stroke="white" stroke-width="2"/>
</svg>
