<svg width="270" height="295" viewBox="0 0 270 295" fill="none" xmlns="http://www.w3.org/2000/svg">
<path fill-rule="evenodd" clip-rule="evenodd" d="M8.67494 168.354C8.37146 167.373 0.672563 77.928 70.4012 36.3505C253.158 -72.6228 293.652 191.492 238.965 237.144C232.726 242.352 201.89 268.093 149.223 281.481C103.405 293.128 12.083 263.395 8.19922 159.171" fill="white"/>
<path fill-rule="evenodd" clip-rule="evenodd" d="M0.182969 157.442C0.196298 150.829 0.621814 142.139 2.07772 132.244C6.76122 100.436 21.7909 55.7884 66.2042 29.3055C120.661 -3.16593 163.355 -3.71836 195.173 12.2467C242.462 35.9741 266.458 97.9128 269.408 152.603C270.67 176.011 268.118 198.011 262.21 214.99C257.911 227.342 251.768 237.144 244.226 243.44C237.76 248.838 205.827 275.557 151.248 289.43C102.305 301.872 4.15495 270.807 0.00562186 159.476C-0.0200103 158.778 0.0425051 158.095 0.182969 157.442ZM16.645 163.632C22.8049 256.915 105.218 284.206 147.206 273.532C197.962 260.63 227.7 235.866 233.712 230.847C239.295 226.187 243.535 218.741 246.716 209.599C252.028 194.334 254.162 174.534 253.027 153.486C250.382 104.442 230.223 48.1878 187.815 26.9088C159.834 12.8695 122.495 14.8404 74.6054 43.3954C35.3442 66.8059 22.447 106.515 18.3079 134.634C16.5198 146.78 16.5086 158.162 16.645 163.632Z" fill="white"/>
<path fill-rule="evenodd" clip-rule="evenodd" d="M82.6423 154.839C86.6491 118.786 134.057 93.9416 159.709 126.738C178.24 150.432 164.288 174.282 158.759 185.767C151.571 200.703 124.143 207.448 105.532 199.757C100.74 197.777 76.3696 174.705 82.6423 154.839Z" fill="white"/>
<path fill-rule="evenodd" clip-rule="evenodd" d="M74.5868 153.172L74.5879 153.166C79.9214 110.882 135.967 83.0625 166.176 121.686C187.407 148.831 172.49 176.166 166.156 189.325C162.477 196.97 154.88 203.21 145.293 206.99C132.176 212.16 115.438 212.724 102.406 207.338C99.5116 206.143 90.3424 198.949 83.2085 188.687C76.0438 178.379 71.1542 165.267 74.5868 153.172ZM108.917 192.278C118.182 196.01 129.997 195.386 139.276 191.728C144.675 189.6 149.304 186.515 151.375 182.211C156.099 172.395 169.092 152.041 153.254 131.792C132.337 105.049 94.0673 126.347 90.8017 155.745C90.7423 156.276 90.6315 156.8 90.4706 157.31C88.0837 164.867 92.1849 172.858 96.6787 179.324C101.005 185.548 108.449 191.882 108.917 192.278Z" fill="white"/>
<path fill-rule="evenodd" clip-rule="evenodd" d="M133.853 161.142C130.634 164.022 125.68 163.917 122.589 160.824C119.387 157.623 119.387 152.426 122.589 149.225L125.082 147.278C128.92 144.877 133.985 146.043 136.387 149.879C138.775 153.694 137.637 158.723 133.853 161.142ZM133.683 161.249C133.511 161.354 133.347 161.454 133.347 161.454C133.347 161.454 133.485 161.387 133.683 161.249Z" fill="white"/>
<path fill-rule="evenodd" clip-rule="evenodd" d="M52.0648 124.4C51.6927 126.633 49.5775 128.143 47.3455 127.771C45.1124 127.399 43.6022 125.285 43.9743 123.052C44.5628 119.518 54.7286 95.8992 55.7405 93.5707C56.7914 91.1541 63.7388 75.5185 79.1324 70.387C81.2794 69.6713 83.6037 70.834 84.3203 72.981C85.036 75.1289 83.8733 77.4533 81.7263 78.1689C69.4527 82.2598 64.1007 94.9139 63.263 96.8404C62.3136 99.0232 52.6165 121.087 52.0648 124.4Z" fill="white"/>
<path fill-rule="evenodd" clip-rule="evenodd" d="M73.8072 62.0923C73.5817 62.1908 72.7009 62.5824 72.0663 62.9854C70.2372 64.146 68.0133 65.9966 65.568 68.3507C54.4919 79.0198 39.1997 99.749 36.697 117.268C36.3771 119.509 34.2978 121.069 32.0566 120.749C29.8163 120.428 28.2569 118.35 28.5768 116.108C31.3143 96.9469 47.7639 74.1117 59.8787 62.443C63.7697 58.6945 67.2731 56.0708 69.7737 54.8846C71.6069 54.0151 73.1787 53.7885 74.3383 53.9146C76.5888 54.1576 78.218 56.1826 77.9739 58.4331C77.7433 60.5657 75.9132 62.1405 73.8072 62.0923Z" fill="white"/>
<path fill-rule="evenodd" clip-rule="evenodd" d="M89.9482 84.1842C91.7383 82.7991 94.3159 83.1271 95.7021 84.9163C97.0873 86.7064 96.7592 89.284 94.9701 90.6702C76.8102 104.729 74.0255 120.292 70.3386 129.509C69.4988 131.611 67.11 132.634 65.0081 131.793C62.9063 130.953 61.8831 128.564 62.7238 126.463C66.7542 116.384 70.0935 99.5563 89.9482 84.1842Z" fill="white"/>
<path fill-rule="evenodd" clip-rule="evenodd" d="M83.8726 127.962C83.0627 130.076 80.6881 131.134 78.575 130.323C76.4619 129.513 75.4038 127.138 76.2137 125.025C76.671 123.833 79.2804 117.061 84.092 111.139C89.2831 104.749 92.077 103.005 94.1122 101.897C94.9498 101.441 95.6337 101.234 96.4129 100.454C98.0134 98.8539 100.612 98.8539 102.213 100.454C103.813 102.055 103.813 104.654 102.213 106.254C101.029 107.439 100.009 108.054 98.849 108.668C97.1798 109.553 95.1374 110.552 90.458 116.311C86.4246 121.275 84.2561 126.962 83.8726 127.962Z" fill="white"/>
<path fill-rule="evenodd" clip-rule="evenodd" d="M139.757 226.576C136.751 227.741 127.73 230.563 111.384 227.867C109.15 227.499 107.636 225.387 108.004 223.153C108.372 220.919 110.485 219.406 112.718 219.774C128.127 222.315 135.844 219.337 137.378 218.69L138.398 218.341L139.414 218.247L140.638 218.475L141.945 219.226L142.654 220.007L143.155 220.987L143.378 222.635L143.179 223.642L142.809 224.452L141.531 225.807C140.991 226.215 140.382 226.469 139.757 226.576Z" fill="white"/>
<path fill-rule="evenodd" clip-rule="evenodd" d="M142.649 233.462C144.839 232.891 147.081 234.205 147.652 236.396C148.223 238.586 146.909 240.827 144.719 241.399C142.957 241.859 134.116 244.158 124.65 244.772C117.908 245.208 110.881 244.735 105.586 242.443C103.509 241.544 102.552 239.127 103.451 237.05C104.351 234.973 106.767 234.016 108.844 234.915C113.081 236.749 118.725 236.935 124.12 236.587C132.861 236.021 141.022 233.886 142.649 233.462Z" fill="white"/>
<path fill-rule="evenodd" clip-rule="evenodd" d="M143.245 262.903C142.244 263.046 140.381 263.335 138.859 263.688C131.828 265.325 121.66 268.128 114.433 267.499C112.124 267.299 103.986 266.651 86.6914 259.168C84.6142 258.269 83.6576 255.852 84.5568 253.775C85.455 251.698 87.8715 250.741 89.9487 251.64C105.676 258.446 113.043 259.146 115.142 259.329C119.341 259.693 124.662 258.619 129.565 257.484C135.179 256.185 140.315 254.787 143.163 254.622C144.217 254.561 145.092 254.643 145.763 254.804L147.09 255.298L148.074 255.972L149.216 257.445L149.712 259.214C149.905 261.47 148.231 263.458 145.975 263.651C144.967 263.738 144.01 263.449 143.245 262.903Z" fill="white"/>
<path fill-rule="evenodd" clip-rule="evenodd" d="M233.301 185.701C232.916 187.931 230.792 189.429 228.562 189.044C226.331 188.659 224.834 186.535 225.218 184.305C225.889 180.423 229.688 171.644 228.581 153.514C227.619 137.769 227.846 136.117 224.218 129.7C223.105 127.729 223.8 125.225 225.771 124.112C227.741 122.997 230.245 123.693 231.359 125.663C235.536 133.053 235.661 134.882 236.768 153.014C237.944 172.253 234.012 181.581 233.301 185.701Z" fill="white"/>
<path fill-rule="evenodd" clip-rule="evenodd" d="M209.219 173.007C209.489 172.399 213.139 164.107 213.495 156.747C213.691 152.679 212.367 145.563 210.351 139.475C209.112 135.735 207.675 132.364 206.012 130.591C204.464 128.94 204.546 126.343 206.196 124.794C207.847 123.246 210.445 123.329 211.993 124.979C214.249 127.383 216.457 131.823 218.138 136.895C220.499 144.024 221.918 152.379 221.687 157.144C221.333 164.485 219.155 171.177 217.488 174.859C216.439 177.174 215.33 178.556 214.821 178.975C213.076 180.416 210.488 180.168 209.048 178.423C207.719 176.814 207.825 174.489 209.219 173.007Z" fill="white"/>
<path fill-rule="evenodd" clip-rule="evenodd" d="M199.383 175.015C198.633 176.818 196.674 177.88 194.702 177.44C192.494 176.946 191.101 174.753 191.594 172.543L192.091 171.256C192.679 170.13 195.239 165.616 195.435 156.827C195.444 156.443 195.202 150.637 193.921 144.998C193.191 141.782 192.26 138.541 190.509 136.871C188.871 135.31 188.808 132.712 190.371 131.073C191.932 129.435 194.53 129.374 196.169 130.935C198.259 132.928 199.92 136.182 201.049 139.878C203.316 147.301 203.647 156.485 203.636 157.009C203.4 167.554 199.692 174.458 199.383 175.015Z" fill="white"/>
<path fill-rule="evenodd" clip-rule="evenodd" d="M11.464 168.251C11.168 167.295 3.65897 80.0554 71.668 39.5033C249.918 -66.7825 289.413 190.819 236.075 235.344C229.99 240.424 199.914 265.531 148.546 278.588C103.858 289.948 14.788 260.949 11 159.294" fill="black"/>
<path fill-rule="evenodd" clip-rule="evenodd" d="M3.17846 157.608C3.19146 151.159 3.60648 142.683 5.02648 133.032C9.59448 102.008 24.2535 58.4619 67.5715 32.6321C120.685 0.961477 162.326 0.422669 193.359 15.994C239.482 39.1362 262.886 99.5474 265.763 152.889C266.994 175.72 264.505 197.177 258.743 213.737C254.55 225.785 248.558 235.344 241.202 241.486C234.896 246.75 203.75 272.811 150.517 286.342C102.782 298.476 7.05248 268.177 3.00548 159.593C2.98048 158.911 3.04146 158.246 3.17846 157.608ZM19.2345 163.645C25.2425 254.628 105.623 281.246 146.575 270.836C196.079 258.252 225.084 234.098 230.948 229.203C236.393 224.658 240.528 217.396 243.631 208.479C248.812 193.59 250.893 174.278 249.786 153.75C247.207 105.915 227.545 51.0487 186.183 30.2945C158.892 16.6014 122.474 18.5237 75.7655 46.3745C37.4725 69.2077 24.8934 107.937 20.8564 135.363C19.1124 147.209 19.1015 158.311 19.2345 163.645Z" fill="black"/>
<path fill-rule="evenodd" clip-rule="evenodd" d="M83.6092 155.07C87.5172 119.906 133.756 95.6743 158.775 127.662C176.849 150.771 163.241 174.033 157.849 185.235C150.838 199.802 124.086 206.381 105.934 198.88C101.26 196.949 77.4912 174.446 83.6092 155.07Z" fill="white"/>
<path fill-rule="evenodd" clip-rule="evenodd" d="M75.7427 153.443L75.7438 153.438C80.9458 112.196 135.609 85.0634 165.073 122.734C185.781 149.21 171.232 175.87 165.054 188.705C161.466 196.161 154.056 202.247 144.705 205.934C131.912 210.977 115.587 211.527 102.876 206.274C100.053 205.108 91.1098 198.092 84.1518 188.083C77.1638 178.029 72.3947 165.24 75.7427 153.443ZM109.227 191.585C118.263 195.225 129.787 194.616 138.837 191.049C144.103 188.973 148.617 185.964 150.637 181.766C155.245 172.192 167.917 152.34 152.47 132.591C132.069 106.507 94.7427 127.28 91.5577 155.953C91.4997 156.471 91.3918 156.982 91.2348 157.479C88.9068 164.85 92.9068 172.644 97.2898 178.951C101.51 185.021 108.77 191.199 109.227 191.585Z" fill="black"/>
<path fill-rule="evenodd" clip-rule="evenodd" d="M133.555 161.217C130.416 164.026 125.584 163.923 122.569 160.907C119.446 157.785 119.446 152.716 122.569 149.594L125.001 147.695C128.744 145.353 133.684 146.49 136.027 150.232C138.356 153.953 137.246 158.858 133.555 161.217ZM133.389 161.321C133.222 161.424 133.062 161.521 133.062 161.521C133.062 161.521 133.196 161.456 133.389 161.321Z" fill="black"/>
<path fill-rule="evenodd" clip-rule="evenodd" d="M53.7741 125.381C53.4111 127.559 51.3481 129.032 49.1711 128.669C46.9931 128.306 45.5201 126.244 45.8831 124.066C46.4571 120.619 56.3721 97.5834 57.3591 95.3124C58.3841 92.9554 65.1601 77.7054 80.1741 72.7004C82.2681 72.0024 84.5351 73.1364 85.2341 75.2304C85.9321 77.3254 84.7981 79.5924 82.7041 80.2904C70.7331 84.2804 65.5131 96.6224 64.6961 98.5014C63.7701 100.63 54.3121 122.15 53.7741 125.381Z" fill="white"/>
<path fill-rule="evenodd" clip-rule="evenodd" d="M74.9915 64.6104C74.7715 64.7064 73.9125 65.0884 73.2935 65.4814C71.5095 66.6134 69.3405 68.4184 66.9555 70.7144C56.1525 81.1204 41.2375 101.338 38.7965 118.425C38.4845 120.611 36.4565 122.132 34.2705 121.82C32.0855 121.507 30.5645 119.48 30.8765 117.294C33.5465 98.6054 49.5905 76.3334 61.4065 64.9524C65.2015 61.2964 68.6185 58.7374 71.0575 57.5804C72.8455 56.7324 74.3785 56.5114 75.5095 56.6344C77.7045 56.8714 79.2935 58.8464 79.0555 61.0414C78.8305 63.1214 77.0455 64.6574 74.9915 64.6104Z" fill="white"/>
<path fill-rule="evenodd" clip-rule="evenodd" d="M90.7344 86.1574C92.4804 84.8064 94.9944 85.1264 96.3464 86.8714C97.6974 88.6174 97.3774 91.1314 95.6324 92.4834C77.9204 106.195 75.2043 121.374 71.6083 130.364C70.7893 132.414 68.4594 133.412 66.4094 132.592C64.3594 131.772 63.3614 129.442 64.1814 127.393C68.1124 117.563 71.3694 101.15 90.7344 86.1574Z" fill="white"/>
<path fill-rule="evenodd" clip-rule="evenodd" d="M84.806 128.855C84.016 130.917 81.7 131.949 79.639 131.158C77.578 130.368 76.5459 128.052 77.3359 125.991C77.7819 124.828 80.3269 118.223 85.0199 112.447C90.0829 106.215 92.808 104.514 94.793 103.433C95.61 102.988 96.277 102.786 97.037 102.026C98.598 100.465 101.133 100.465 102.694 102.026C104.255 103.587 104.255 106.122 102.694 107.683C101.539 108.838 100.544 109.438 99.4129 110.037C97.7849 110.9 95.7929 111.875 91.2289 117.492C87.2949 122.333 85.18 127.88 84.806 128.855Z" fill="white"/>
<path fill-rule="evenodd" clip-rule="evenodd" d="M139.317 225.037C136.385 226.173 127.586 228.926 111.643 226.296C109.464 225.937 107.988 223.877 108.347 221.699C108.706 219.52 110.766 218.044 112.944 218.403C127.973 220.881 135.5 217.977 136.996 217.346L137.991 217.005L138.982 216.914L140.176 217.136L141.451 217.868L142.142 218.63L142.631 219.586L142.848 221.193L142.654 222.176L142.293 222.966L141.047 224.287C140.52 224.685 139.926 224.933 139.317 225.037Z" fill="white"/>
<path fill-rule="evenodd" clip-rule="evenodd" d="M142.131 231.753C144.267 231.196 146.454 232.478 147.011 234.615C147.568 236.751 146.286 238.937 144.15 239.495C142.431 239.943 133.808 242.186 124.576 242.784C118 243.21 111.146 242.748 105.982 240.513C103.956 239.636 103.023 237.279 103.9 235.253C104.777 233.227 107.134 232.294 109.16 233.171C113.292 234.959 118.797 235.141 124.059 234.801C132.584 234.249 140.544 232.167 142.131 231.753Z" fill="white"/>
<path fill-rule="evenodd" clip-rule="evenodd" d="M142.715 260.468C141.739 260.608 139.921 260.889 138.437 261.234C131.579 262.83 121.662 265.564 114.613 264.951C112.361 264.756 104.424 264.124 87.5562 256.825C85.5302 255.948 84.5972 253.591 85.4742 251.565C86.3502 249.539 88.7072 248.606 90.7332 249.483C106.072 256.121 113.258 256.804 115.305 256.982C119.4 257.337 124.59 256.29 129.372 255.183C134.848 253.916 139.857 252.552 142.635 252.391C143.663 252.332 144.516 252.412 145.171 252.569L146.465 253.051L147.425 253.708L148.539 255.145L149.022 256.87C149.211 259.07 147.578 261.009 145.378 261.198C144.394 261.282 143.461 261.001 142.715 260.468Z" fill="white"/>
<path fill-rule="evenodd" clip-rule="evenodd" d="M230.556 185.17C230.18 187.345 228.109 188.806 225.934 188.431C223.758 188.055 222.297 185.984 222.672 183.809C223.326 180.022 227.032 171.46 225.952 153.777C225.014 138.42 225.235 136.809 221.697 130.55C220.611 128.628 221.289 126.186 223.211 125.1C225.133 124.013 227.575 124.691 228.662 126.613C232.736 133.821 232.857 135.604 233.937 153.289C235.084 172.054 231.249 181.152 230.556 185.17Z" fill="white"/>
<path fill-rule="evenodd" clip-rule="evenodd" d="M207.062 172.789C207.326 172.196 210.886 164.109 211.233 156.93C211.424 152.962 210.133 146.022 208.166 140.084C206.958 136.436 205.556 133.148 203.934 131.419C202.424 129.809 202.504 127.276 204.114 125.765C205.724 124.255 208.258 124.336 209.768 125.946C211.968 128.29 214.122 132.621 215.761 137.568C218.064 144.521 219.448 152.67 219.223 157.317C218.877 164.477 216.753 171.004 215.127 174.595C214.104 176.853 213.022 178.201 212.526 178.61C210.824 180.015 208.3 179.774 206.895 178.072C205.599 176.502 205.703 174.235 207.062 172.789Z" fill="white"/>
<path fill-rule="evenodd" clip-rule="evenodd" d="M197.465 174.748C196.734 176.506 194.823 177.542 192.9 177.113C190.746 176.631 189.387 174.492 189.868 172.337L190.353 171.082C190.926 169.983 193.423 165.581 193.614 157.008C193.623 156.634 193.387 150.971 192.138 145.471C191.426 142.334 190.518 139.173 188.81 137.545C187.212 136.022 187.151 133.488 188.675 131.89C190.198 130.292 192.732 130.232 194.33 131.755C196.369 133.699 197.989 136.873 199.09 140.477C201.301 147.717 201.624 156.675 201.613 157.186C201.383 167.471 197.766 174.205 197.465 174.748Z" fill="white"/>
</svg>
